{
	"asset":{
		"generator":"Khronos glTF Blender I/O v4.3.47",
		"version":"2.0"
	},
	"scene":0,
	"scenes":[
		{
			"name":"Scene",
			"nodes":[
				0,
				1,
				2,
				3
			]
		}
	],
	"nodes":[
		{
			"mesh":0,
			"name":"Plane",
			"rotation":[
				0.7071068286895752,
				0,
				0,
				0.7071068286895752
			],
			"scale":[
				0.6599999666213989,
				1,
				1
			],
			"translation":[
				0,
				1,
				0
			]
		},
		{
			"mesh":1,
			"name":"Plane.001",
			"rotation":[
				0.5056961178779602,
				0.4942382574081421,
				-0.49423831701278687,
				0.5056960582733154
			],
			"scale":[
				0.6599999666213989,
				1,
				1
			],
			"translation":[
				0,
				1,
				0
			]
		},
		{
			"mesh":2,
			"name":"Plane.002",
			"rotation":[
				0.021092073991894722,
				-0.7067921161651611,
				0.7067921757698059,
				0.021092073991894722
			],
			"scale":[
				0.6599999666213989,
				1,
				1
			],
			"translation":[
				0,
				1,
				0
			]
		},
		{
			"mesh":3,
			"name":"Plane.003",
			"rotation":[
				0.49842503666877747,
				-0.5015699863433838,
				0.5015700459480286,
				0.4984250068664551
			],
			"scale":[
				0.6599999666213989,
				1,
				1
			],
			"translation":[
				0,
				1,
				0
			]
		}
	],
	"meshes":[
		{
			"name":"Plane",
			"primitives":[
				{
					"attributes":{
						"POSITION":0,
						"NORMAL":1,
						"TEXCOORD_0":2
					},
					"indices":3
				}
			]
		},
		{
			"name":"Plane.002",
			"primitives":[
				{
					"attributes":{
						"POSITION":4,
						"NORMAL":5,
						"TEXCOORD_0":6
					},
					"indices":3
				}
			]
		},
		{
			"name":"Plane.003",
			"primitives":[
				{
					"attributes":{
						"POSITION":7,
						"NORMAL":8,
						"TEXCOORD_0":9
					},
					"indices":10
				}
			]
		},
		{
			"name":"Plane.004",
			"primitives":[
				{
					"attributes":{
						"POSITION":11,
						"NORMAL":12,
						"TEXCOORD_0":13
					},
					"indices":14
				}
			]
		}
	],
	"accessors":[
		{
			"bufferView":0,
			"componentType":5126,
			"count":10,
			"max":[
				0.6910201907157898,
				1.2626540660858154,
				1
			],
			"min":[
				-0.28182923793792725,
				0.1055687665939331,
				-2.263576030731201
			],
			"type":"VEC3"
		},
		{
			"bufferView":1,
			"componentType":5126,
			"count":10,
			"type":"VEC3"
		},
		{
			"bufferView":2,
			"componentType":5126,
			"count":10,
			"type":"VEC2"
		},
		{
			"bufferView":3,
			"componentType":5123,
			"count":12,
			"type":"SCALAR"
		},
		{
			"bufferView":4,
			"componentType":5126,
			"count":10,
			"max":[
				0.5464486479759216,
				1.2777247428894043,
				1
			],
			"min":[
				-0.428899884223938,
				0.0782129168510437,
				-2.9580931663513184
			],
			"type":"VEC3"
		},
		{
			"bufferView":5,
			"componentType":5126,
			"count":10,
			"type":"VEC3"
		},
		{
			"bufferView":6,
			"componentType":5126,
			"count":10,
			"type":"VEC2"
		},
		{
			"bufferView":7,
			"componentType":5126,
			"count":10,
			"max":[
				0.500106155872345,
				1.2406620979309082,
				1
			],
			"min":[
				-0.4504774212837219,
				0.23290693759918213,
				-3.0939929485321045
			],
			"type":"VEC3"
		},
		{
			"bufferView":8,
			"componentType":5126,
			"count":10,
			"type":"VEC3"
		},
		{
			"bufferView":9,
			"componentType":5126,
			"count":10,
			"type":"VEC2"
		},
		{
			"bufferView":10,
			"componentType":5123,
			"count":12,
			"type":"SCALAR"
		},
		{
			"bufferView":11,
			"componentType":5126,
			"count":10,
			"max":[
				0.674458384513855,
				1.1572480201721191,
				1
			],
			"min":[
				-0.31159260869026184,
				0.14949296414852142,
				-3.058145761489868
			],
			"type":"VEC3"
		},
		{
			"bufferView":12,
			"componentType":5126,
			"count":10,
			"type":"VEC3"
		},
		{
			"bufferView":13,
			"componentType":5126,
			"count":10,
			"type":"VEC2"
		},
		{
			"bufferView":14,
			"componentType":5123,
			"count":12,
			"type":"SCALAR"
		}
	],
	"bufferViews":[
		{
			"buffer":0,
			"byteLength":120,
			"byteOffset":0,
			"target":34962
		},
		{
			"buffer":0,
			"byteLength":120,
			"byteOffset":120,
			"target":34962
		},
		{
			"buffer":0,
			"byteLength":80,
			"byteOffset":240,
			"target":34962
		},
		{
			"buffer":0,
			"byteLength":24,
			"byteOffset":320,
			"target":34963
		},
		{
			"buffer":0,
			"byteLength":120,
			"byteOffset":344,
			"target":34962
		},
		{
			"buffer":0,
			"byteLength":120,
			"byteOffset":464,
			"target":34962
		},
		{
			"buffer":0,
			"byteLength":80,
			"byteOffset":584,
			"target":34962
		},
		{
			"buffer":0,
			"byteLength":120,
			"byteOffset":664,
			"target":34962
		},
		{
			"buffer":0,
			"byteLength":120,
			"byteOffset":784,
			"target":34962
		},
		{
			"buffer":0,
			"byteLength":80,
			"byteOffset":904,
			"target":34962
		},
		{
			"buffer":0,
			"byteLength":24,
			"byteOffset":984,
			"target":34963
		},
		{
			"buffer":0,
			"byteLength":120,
			"byteOffset":1008,
			"target":34962
		},
		{
			"buffer":0,
			"byteLength":120,
			"byteOffset":1128,
			"target":34962
		},
		{
			"buffer":0,
			"byteLength":80,
			"byteOffset":1248,
			"target":34962
		},
		{
			"buffer":0,
			"byteLength":24,
			"byteOffset":1328,
			"target":34963
		}
	],
	"buffers":[
		{
			"byteLength":1352,
			"uri":"GrassTuft.bin"
		}
	]
}
